<svg width="16" height="12" viewBox="0 0 16 12" fill="none" xmlns="http://www.w3.org/2000/svg">
<path d="M4.96868 11.0669L4.9686 11.0668L0.897615 6.99576L0.89753 6.99567C0.36749 6.46588 0.36749 5.60552 0.89753 5.07572L0.897701 5.07555C1.42743 4.54555 2.28782 4.54543 2.81801 5.07564L2.81804 5.07566L5.24354 7.50087L5.24386 7.50118C5.62233 7.87894 6.23538 7.87846 6.61375 7.50152L6.61443 7.50084L13.182 0.933142L13.1821 0.933057C13.7118 0.403058 14.5722 0.402935 15.1024 0.933142C15.3569 1.1877 15.5 1.53317 15.5 1.8932C15.5 2.25324 15.3569 2.5987 15.1024 2.85326L6.889 11.0668C6.3588 11.597 5.49841 11.5969 4.96868 11.0669Z" fill="#FECF01" stroke="#FECF01"/>
</svg>
